<svg width="78" height="79" viewBox="0 0 78 79" fill="none" xmlns="http://www.w3.org/2000/svg">
<circle cx="39" cy="39.5" r="39" fill="#FFA343"/>
<path d="M63.0883 28.9606C61.7719 26.0518 59.8823 23.4402 57.4831 21.1896C55.0839 18.9603 52.3025 17.198 49.2026 15.9665C45.9966 14.6926 42.5994 14.0557 39.0961 14.0557C35.5928 14.0557 32.1957 14.6926 28.9897 15.9665C25.8898 17.198 23.1084 18.939 20.7092 21.1896C18.3099 23.4402 16.4203 26.0518 15.1039 28.9606C13.7451 31.9755 13.0444 35.2028 13.0444 38.515C13.0444 44.3113 15.21 49.8741 19.1804 54.2904L17.0572 65.8618L28.3527 60.8298C31.7286 62.2736 35.3168 62.9955 39.0749 62.9955C42.5782 62.9955 45.9753 62.3586 49.1813 61.0846C52.2812 59.8532 55.0626 58.1121 57.4618 55.8616C59.8611 53.611 61.7507 50.9994 63.0671 48.0906C64.4259 45.0757 65.1266 41.8484 65.1266 38.5362C65.1479 35.2028 64.4472 31.9967 63.0883 28.9606Z" fill="white"/>
<path d="M49.6697 43.3981C48.5657 42.8461 47.7589 42.5064 47.1857 42.2941C46.8247 42.1667 45.9754 41.7845 45.6782 42.0181C44.7439 42.7824 43.746 44.9481 42.6844 45.3515C40.0516 44.8419 37.61 43.0372 35.6991 41.19C34.8498 40.3832 33.2786 38.0901 32.9389 37.4744C32.8752 36.8374 34.0217 35.9882 34.2765 35.4998C35.5929 34.0136 34.595 33.0794 34.4252 32.4636C34.1279 31.8267 33.6184 30.6802 33.1725 29.7459C32.7903 29.1302 32.7053 28.2172 32.0259 27.8775C29.1383 26.3913 27.4823 29.3638 26.8029 30.9137C22.7051 40.7866 47.3342 59.577 52.345 46.6254C52.5998 45.5001 52.4936 45.0755 52.1114 44.5659C51.3471 44.0351 50.4553 43.8016 49.6697 43.3981Z" fill="#281686"/>
</svg>
