<svg width="158" height="25" viewBox="0 0 158 25" fill="none" xmlns="http://www.w3.org/2000/svg">
<path d="M13 0L15.8064 8.63729H24.8882L17.5409 13.9754L20.3473 22.6127L13 17.2746L5.65268 22.6127L8.45911 13.9754L1.11179 8.63729H10.1936L13 0Z" fill="#FF7A00"/>
<path d="M46 0L48.8064 8.63729H57.8882L50.5409 13.9754L53.3473 22.6127L46 17.2746L38.6527 22.6127L41.4591 13.9754L34.1118 8.63729H43.1936L46 0Z" fill="#FF7A00"/>
<path d="M79 0L81.8064 8.63729H90.8882L83.5409 13.9754L86.3473 22.6127L79 17.2746L71.6527 22.6127L74.4591 13.9754L67.1118 8.63729H76.1936L79 0Z" fill="#FF7A00"/>
<path d="M112 0L114.806 8.63729H123.888L116.541 13.9754L119.347 22.6127L112 17.2746L104.653 22.6127L107.459 13.9754L100.112 8.63729H109.194L112 0Z" fill="#FF7A00"/>
<path d="M145 0L147.806 8.63729H156.888L149.541 13.9754L152.347 22.6127L145 17.2746L137.653 22.6127L140.459 13.9754L133.112 8.63729H142.194L145 0Z" fill="#FF7A00"/>
</svg>
